<?xml version="1.0" encoding="UTF-8" standalone="no"?>
<!DOCTYPE svg PUBLIC "-//W3C//DTD SVG 1.1//EN" "http://www.w3.org/Graphics/SVG/1.1/DTD/svg11.dtd">
<svg width="100%" height="100%" viewBox="0 0 209 196" version="1.1" xmlns="http://www.w3.org/2000/svg" xmlns:xlink="http://www.w3.org/1999/xlink" xml:space="preserve" xmlns:serif="http://www.serif.com/" style="fill-rule:evenodd;clip-rule:evenodd;stroke-linejoin:round;stroke-miterlimit:2;">
    <g>
        <g transform="matrix(1.975425,0,0,1.975425,-101.736862,-95.640454)">
            <path d="M51.4,123.3L60.3,138.7C62.1,142.2 65.7,144.6 69.8,144.6L129.1,144.6L116.8,123.3L51.4,123.3Z" style="fill:rgb(1,255,255);fill-rule:nonzero;"/>
        </g>
        <g transform="matrix(1.975425,0,0,1.975425,-101.736862,-95.640454)">
            <path d="M157.2,123.4C157.2,121.3 156.6,119.3 155.5,117.6L120.7,57.2C118.9,53.8 115.4,51.5 111.3,51.5L92.9,51.5L146.6,144.5L155.1,129.8C156.7,127 157.2,125.8 157.2,123.4Z" style="fill:rgb(1,255,255);fill-rule:nonzero;"/>
        </g>
        <g transform="matrix(1.975425,0,0,1.975425,-101.736862,-95.640454)">
            <path d="M108.1,108.1L84.2,66.6L60.2,108.1L108.1,108.1Z" style="fill:rgb(1,255,255);fill-rule:nonzero;"/>
        </g>
    </g>
</svg>
